<svg id="0c3be6aa-5f0e-498c-b24a-16aa7490f102" data-name="Calque 1" xmlns="http://www.w3.org/2000/svg" viewBox="0 0 156 77"><defs><style>.fb9f5422-5799-4707-b97f-b85790dafe54{fill:#282525;}</style></defs><title>logo_morphean</title><path class="fb9f5422-5799-4707-b97f-b85790dafe54" d="M4.05,13.81V6.2l12.5,8.93L29,6.2v7.61a7.93,7.93,0,0,1,3.07,4.28V0L16.55,11.07,1,0V18.09a8,8,0,0,1,3.07-4.28"/><path class="fb9f5422-5799-4707-b97f-b85790dafe54" d="M8.61,20a1.32,1.32,0,1,1,1.32-1.32A1.31,1.31,0,0,1,8.61,20m15.89-2.63a1.32,1.32,0,1,1-1.32,1.32,1.32,1.32,0,0,1,1.32-1.32m0,7.06a4.11,4.11,0,0,0,1.19-8l0,0v-4L16.55,18.9h0L7.39,12.36v4l0,0a4.12,4.12,0,0,0-2.8,5,4.07,4.07,0,0,0,3,3,4.12,4.12,0,0,0,5.1-4c0-.05,0-.11,0-.16l3.84,2.73h0l3.84-2.73c0,.05,0,.11,0,.16a4.11,4.11,0,0,0,4.11,4.11"/><path class="fb9f5422-5799-4707-b97f-b85790dafe54" d="M32.08,22.19a7.85,7.85,0,0,1-2.32,4,13.1,13.1,0,0,1,.11,1.69v4.67A13.29,13.29,0,0,1,16.58,45.85h-.06A13.29,13.29,0,0,1,3.23,32.56V27.89a13.11,13.11,0,0,1,.11-1.69,7.87,7.87,0,0,1-2.32-4,16.47,16.47,0,0,0-1,5.7v4.67A16.52,16.52,0,0,0,16.52,49.08h.06A16.52,16.52,0,0,0,33.1,32.56V27.89a15.2,15.2,0,0,0-1-5.7"/><path class="fb9f5422-5799-4707-b97f-b85790dafe54" d="M7.45,76.09V57.71l9.09,11,9.09-11V76.09H22.49V66l-6,7.25L10.59,66V76.09Z"/><path class="fb9f5422-5799-4707-b97f-b85790dafe54" d="M32.16,73.79a9.25,9.25,0,0,1,0-13.12A9.13,9.13,0,0,1,38.83,58a9.13,9.13,0,0,1,6.66,2.68,9.22,9.22,0,0,1,0,13.12,9.72,9.72,0,0,1-13.36,0Zm2.2-2a6.38,6.38,0,0,0,8.91,0,6.54,6.54,0,0,0,0-9,6.32,6.32,0,0,0-8.91,0,6.21,6.21,0,0,0-1.79,4.52A6.12,6.12,0,0,0,34.36,71.75Z"/><path class="fb9f5422-5799-4707-b97f-b85790dafe54" d="M52,76.09V58.29h6.92A5.6,5.6,0,0,1,63,59.93a5.31,5.31,0,0,1,1.69,4A5.37,5.37,0,0,1,61.44,69l4.31,7.1h-3.6l-3.81-6.33H55.18v6.33Zm3.19-9.19h3.4A2.79,2.79,0,0,0,61.51,64a2.67,2.67,0,0,0-2.68-2.81H55.18Z"/><path class="fb9f5422-5799-4707-b97f-b85790dafe54" d="M69,76.09V58.29H75.8a5.82,5.82,0,0,1,4,1.61,5.79,5.79,0,0,1,0,8.32,5.65,5.65,0,0,1-4,1.63H72.2v6.23ZM72.2,67h3.45a2.9,2.9,0,0,0,0-5.8H72.2Z"/><path class="fb9f5422-5799-4707-b97f-b85790dafe54" d="M85.23,76.09V58.29h3.19v6.95H97V58.29h3.17v17.8H97v-8H88.42v8Z"/><path class="fb9f5422-5799-4707-b97f-b85790dafe54" d="M104.88,76.09V58.29h11.34v2.88h-8.15v4.24h7.64V68.3h-7.64v4.9h8.33v2.88Z"/><path class="fb9f5422-5799-4707-b97f-b85790dafe54" d="M118.83,76.09l8.81-18.67,8.78,18.67H133l-1.58-3.45h-7.66l-1.58,3.45ZM125,69.88h5.26l-2.63-5.8Z"/><path class="fb9f5422-5799-4707-b97f-b85790dafe54" d="M139.68,76.09V57.63l12.13,11.9V58.29H155V76.75L142.87,64.91V76.09Z"/></svg>