<svg id="091c2e49-a72e-4a02-b806-4b6b253ad4f6" data-name="Calque 1" xmlns="http://www.w3.org/2000/svg" viewBox="0 0 33.72 50"><defs><style>.a22c764a-b956-45d2-9532-b8f796a117dc{fill:#282525;}</style></defs><title>Logo_header</title><path class="a22c764a-b956-45d2-9532-b8f796a117dc" d="M4.13,14.06V6.31l12.73,9.09L29.59,6.31v7.75a8.08,8.08,0,0,1,3.13,4.37V0L16.86,11.28,1,0V18.43a8.1,8.1,0,0,1,3.13-4.37"/><path class="a22c764a-b956-45d2-9532-b8f796a117dc" d="M8.77,20.37A1.34,1.34,0,1,1,10.11,19a1.34,1.34,0,0,1-1.34,1.34M25,17.69A1.34,1.34,0,1,1,23.61,19,1.34,1.34,0,0,1,25,17.69m0,7.19a4.19,4.19,0,0,0,1.21-8.2l0,0V12.59l-9.33,6.66h0L7.53,12.59v4.07l0,0a4.19,4.19,0,1,0,5.39,4c0-.05,0-.11,0-.17l3.91,2.79h0l3.91-2.79c0,.05,0,.11,0,.17A4.19,4.19,0,0,0,25,24.88"/><path class="a22c764a-b956-45d2-9532-b8f796a117dc" d="M32.68,22.61a8,8,0,0,1-2.36,4.09,13.35,13.35,0,0,1,.11,1.72v4.76A13.54,13.54,0,0,1,16.89,46.71h-.06A13.54,13.54,0,0,1,3.29,33.17V28.42A13.35,13.35,0,0,1,3.4,26.7,8,8,0,0,1,1,22.61a16.78,16.78,0,0,0-1,5.81v4.76A16.83,16.83,0,0,0,16.83,50h.06A16.83,16.83,0,0,0,33.72,33.17V28.42a15.48,15.48,0,0,0-1-5.81"/></svg>